<?xml version="1.0" encoding="utf-8"?>
<!-- Generator: Adobe Illustrator 23.0.6, SVG Export Plug-In . SVG Version: 6.00 Build 0)  -->
<svg version="1.1" id="Capa_1" xmlns="http://www.w3.org/2000/svg" xmlns:xlink="http://www.w3.org/1999/xlink" x="0px" y="0px"
	 viewBox="0 0 512 512" style="enable-background:new 0 0 512 512;" xml:space="preserve">
<style type="text/css">
	.st0{fill:none;stroke:#FFFFFF;stroke-width:20;stroke-miterlimit:10;}
</style>
<path class="st0" d="M357.3,57.6C356.1,49,352.6,45.5,344,46c-8.6,0.5-17.3,1.9-25.8,3.2c-17.1,2.6-34.3,4.4-51.7,3.5
	c-24.6-1.2-48.3-6.7-71.3-15.1c-19.5-7.1-38.7-15-58.1-22.5c-6.5-2.5-13.1-4.2-20.2-3.5c-4.9,0.5-9.2,2.2-11.9,6.5
	c-4.2,6.6-0.6,13.6,6.9,14.6c2.5,0.3,5.4,1.4,7.3,3c3.1,2.7,6,5.9,8.2,9.4c8.6,13.6,13,28.9,15.9,44.6c1.3,7.2,2.1,14.6,3.2,22.3
	c8.4,0.5,16.8,1.3,25.3,1.5c32.8,0.6,65.6,1.5,98.3,1.4c24.1-0.1,48.1-1.6,72.2-2.6c1,0,2.7-0.8,2.9-1.6c3.2-9.9,6.4-19.8,9.2-29.8
	C356.8,73.3,358.3,65.6,357.3,57.6z"/>
<path class="st0" d="M379.7,219.8c-1.2-5.3-2.5-9.8-3.2-14.5c-2.5-15.1-3.8-30.3-2.5-45.6c0.3-3,0.8-5.9,1.7-8.7
	c1.4-4.4,3.9-5,7.1-1.9c0.4,0.4,0.8,0.8,1.1,1.3c8.3,12.1,19.6,17.3,32.7,19.5c9.4,1.6,18.6,4.3,27.8,6.5
	c16.2,4,27.7,15.1,35.9,30.9c7.9,15.1,12.3,31.6,14.9,48.8c5.6,37.5,5,74.8-2,112c-0.7,3.6-1.4,7.3-2.7,10.6c-1.1,3-2.7,5.9-4.7,8.2
	c-3.2,3.7-7.4,4.7-11.8,2.6c-4.4-2.1-6.6-6.3-6.4-11.4c0.3-5.4,1.4-10.8,2.2-16.2c3.8-25.5,5.4-51.2,3-77
	c-1.6-16.4-4.7-32.3-12.5-46.6c-6.1-11.3-14.5-19.4-26-22.8c-8.1-2.4-16.3-4.7-24.6-6C399,207.6,388.8,210.1,379.7,219.8z"/>
<path class="st0" d="M393.8,367.8c-3.5-18.1-9.2-35.6-15.3-52.9c-9.8-28-20.4-55.7-27.6-84.4c-6.3-24.9-10.2-50.1-8.1-75.8
	c0.2-2.4,0.4-4.8,0.7-7.5c-65.2,3.7-130.1,3.7-195.1-0.1c0.4,7,1,13.6,1.1,20.2c0.2,19.6-2.8,38.8-7.3,57.8
	c-5.9,24.6-14.3,48.5-22.8,72.4c-7.6,21.4-15.5,42.7-20.4,64.8c-4.3,19.3-4.3,38.5,3.2,57.2c11.3,28.4,31.6,49.8,58.3,66
	c5.1,3.1,10.9,5.8,16.8,7.3c8.4,2.1,17.1,3.2,25.7,4.1c31.6,3.3,63.2,3,94.8-1c13.2-1.7,25.8-4.7,37-12.1c15.2-10,28.4-21.8,39.1-36
	C391.8,423.8,399.4,397.4,393.8,367.8z M351.1,394c-1.7,21.4-9.4,40.5-27.1,55.9c-14.4,12.6-32.1,19.4-51.9,22.4
	c-5.4,0.8-10.9,1.2-15.3,1.6c7.5-2.1,16.3-3.7,24.3-6.8c30.1-11.6,47.5-32,52.7-60.5c3.1-17.3,0.3-34.2-5.3-50.8
	c-7.5-22.5-15.8-44.7-23.8-67.1c-7.7-21.4-14.8-42.9-18.5-65.1c-1.7-10.1-2.3-20.4-3.4-30.7c-0.1-0.8,0-1.5,0-2.5
	c8.9-0.5,17.5-1,26.2-1.5c0,4.8,0,9.5,0,14.1c0.2,23.6,5,46.7,11.9,69.4c7.2,23.7,15.2,47.3,22.6,71
	C348.6,360,352.4,376.7,351.1,394z"/>
</svg>
