<svg id="Calque_1" data-name="Calque 1" xmlns="http://www.w3.org/2000/svg" viewBox="0 0 323 534"><defs><style>.cls-1,.cls-2,.cls-3{fill:none;stroke:#000;stroke-miterlimit:10;stroke-width:5px;}.cls-1,.cls-2{stroke-linecap:round;}.cls-2{fill-rule:evenodd;}</style></defs><title>logo-dark</title><path d="M172.5,89C258.79,89,329,137.22,329,196.5S258.79,304,172.5,304,16,255.78,16,196.5,86.21,89,172.5,89m0-5C83.31,84,11,134.37,11,196.5S83.31,309,172.5,309,334,258.63,334,196.5,261.69,84,172.5,84Z" transform="translate(-11 -11)"/><path d="M176.5,88.59a107.51,107.51,0,1,1-76,31.49,106.77,106.77,0,0,1,76-31.49m0-5A112.5,112.5,0,1,0,289,196.09,112.5,112.5,0,0,0,176.5,83.59Z" transform="translate(-11 -11)"/><path d="M173,89c10.26,0,20.69,10.89,28.62,29.88C210.25,139.53,215,167.1,215,196.5s-4.75,57-13.38,77.62C193.69,293.11,183.26,304,173,304s-20.69-10.89-28.62-29.88C135.75,253.47,131,225.9,131,196.5s4.75-57,13.38-77.62C152.31,99.89,162.74,89,173,89m0-5c-26,0-47,50.37-47,112.5S147,309,173,309s47-50.37,47-112.5S199,84,173,84Z" transform="translate(-11 -11)"/><rect x="116.5" y="53.5" width="88" height="8"/><path d="M213,67v3H130V67h83m5-5H125V75h93V62Z" transform="translate(-11 -11)"/><rect x="117.5" y="309.5" width="88" height="8"/><path d="M214,323v3H131v-3h83m5-5H126v13h93V318Z" transform="translate(-11 -11)"/><line class="cls-1" x1="115.5" y1="326.5" x2="115.5" y2="389.5"/><line class="cls-1" x1="206.5" y1="326.5" x2="206.5" y2="389.5"/><line class="cls-1" x1="185.25" y1="326.5" x2="185.25" y2="389.5"/><line class="cls-1" x1="162" y1="326.5" x2="162" y2="389.5"/><line class="cls-1" x1="138.75" y1="326.5" x2="138.75" y2="389.5"/><polygon class="cls-2" points="162.5 403 144.5 461.5 180.5 461.5 162.5 403"/><line class="cls-1" x1="162.5" y1="468.5" x2="162.5" y2="531.5"/><line class="cls-1" x1="144.5" y1="468.5" x2="144.5" y2="531.5"/><line class="cls-1" x1="180.5" y1="468.5" x2="180.5" y2="531.5"/><path class="cls-3" d="M161.5,36c5,9.5,10,26.5,9.5,26.5s6.5-21,9.5-26.5c7-12.85-4.75-22.5-10-22.5S154.68,23.05,161.5,36Z" transform="translate(-11 -11)"/></svg>