<svg id="Calque_1" data-name="Calque 1" xmlns="http://www.w3.org/2000/svg" viewBox="0 0 160 160"><defs><style>.cls-1,.cls-3{fill:none;}.cls-2,.cls-4{fill:#fff;}.cls-3{stroke:#000;}.cls-3,.cls-4{stroke-miterlimit:10;}.cls-4{stroke:#fff;}</style></defs><title>dim-sum</title><path class="cls-1" d="M881,461h160V621H881Zm48.07,40.75c-1.71,1.13-3.1,2-4.46,3-12.93,8.83-22.24,20.44-27,35.46-7.46,23.48.85,45.35,22.48,55.67,26.9,12.84,54.51,12.86,81.51.16,18-8.49,27-24.81,25.22-43.76a59.72,59.72,0,0,0-24.49-43.54c-6.21-4.63-7.83-8.76-5.11-15.49,1.51-3.75,1.1-8-2.61-9.64a13.11,13.11,0,0,0-9.7,0c-10.68,4.75-10.56,5-16.36-5.36-.16-.29-.33-.57-.51-.85-3.76-5.83-10.55-5.78-14.18.16-1.89,3.09-2.91,7.89-5.56,9-2.88,1.24-7.2-.88-10.89-1.53-6.95-1.2-11.43,3.24-10.14,10.16C927.65,497.25,928.38,499.29,929.07,501.75Z" transform="translate(-881 -461)"/><path class="cls-2" d="M929.07,501.75c-.69-2.46-1.42-4.5-1.81-6.6-1.29-6.92,3.19-11.36,10.14-10.16,3.69.65,8,2.77,10.89,1.53,2.65-1.13,3.67-5.93,5.56-9,3.63-5.94,10.42-6,14.18-.16.18.28.35.56.51.85,5.8,10.38,5.68,10.11,16.36,5.36a13.11,13.11,0,0,1,9.7,0c3.71,1.69,4.12,5.89,2.61,9.64-2.72,6.73-1.1,10.86,5.11,15.49a59.72,59.72,0,0,1,24.49,43.54c1.81,19-7.18,35.27-25.22,43.76-27,12.7-54.61,12.68-81.51-.16-21.63-10.32-29.94-32.19-22.48-55.67,4.77-15,14.08-26.63,27-35.46C926,503.78,927.36,502.88,929.07,501.75Zm1.26,5.29c-16.32,9.26-27,22.45-30.4,40.7-3.75,20,4.37,36.76,23,45a104.79,104.79,0,0,0,28.7,7.63c17.12,2.16,34-.1,49.42-8.44,10.87-5.87,18.58-14.49,21-27,3.89-19.87-7.44-44.51-25.68-55.79-.16-.11-.57.18-1.12.38a22.23,22.23,0,0,1,1.57,4.11,14.86,14.86,0,0,1-.29,3.78c-1.12-.73-3-1.31-3.22-2.22a76.53,76.53,0,0,1-1.85-14.08c0-3.23,1.48-6.45,2.1-9.71.81-4.31-1.76-6.46-5.81-4.82-2.3.93-4.42,2.31-6.67,3.39-6.44,3.08-10.71,1.5-13.95-4.8-1.58-3.06-1.8-8.43-6.32-7.66-2.38.4-4.45,4.66-6,7.54-3.18,6-6.49,7.58-13,5.59-1.59-.49-3.14-1.17-4.75-1.51-4.65-1-6.79,1.14-5.77,5.71.58,2.59,2.11,5.12,2.06,7.67a59.84,59.84,0,0,1-1.8,12.52c-.23,1-2.32,1.55-3.55,2.31a16,16,0,0,1,.07-3.92C928.67,511.21,929.57,509.14,930.33,507Z" transform="translate(-881 -461)"/><path class="cls-1" d="M930.33,507c-.76,2.1-1.66,4.17-2.22,6.32a16,16,0,0,0-.07,3.92c1.23-.76,3.32-1.32,3.55-2.31a59.84,59.84,0,0,0,1.8-12.52c.05-2.55-1.48-5.08-2.06-7.67-1-4.57,1.12-6.67,5.77-5.71,1.61.34,3.16,1,4.75,1.51,6.55,2,9.86.37,13-5.59,1.54-2.88,3.61-7.14,6-7.54,4.52-.77,4.74,4.6,6.32,7.66,3.24,6.3,7.51,7.88,13.95,4.8,2.25-1.08,4.37-2.46,6.67-3.39,4-1.64,6.62.51,5.81,4.82-.62,3.26-2.12,6.48-2.1,9.71a76.53,76.53,0,0,0,1.85,14.08c.18.91,2.1,1.49,3.22,2.22a14.86,14.86,0,0,0,.29-3.78,22.23,22.23,0,0,0-1.57-4.11c.55-.2,1-.49,1.12-.38,18.24,11.28,29.57,35.92,25.68,55.79-2.46,12.54-10.17,21.16-21,27-15.46,8.34-32.3,10.6-49.42,8.44a104.79,104.79,0,0,1-28.7-7.63c-18.66-8.21-26.78-24.92-23-45C903.34,529.49,914,516.3,930.33,507Z" transform="translate(-881 -461)"/><path class="cls-3" d="M1028.62,524" transform="translate(-881 -461)"/><path class="cls-3" d="M944,509.32" transform="translate(-881 -461)"/><path class="cls-3" d="M1014.37,469.36" transform="translate(-881 -461)"/><circle class="cls-4" cx="62.76" cy="50.49" r="2.18"/><path class="cls-3" d="M1107.74,516.84" transform="translate(-881 -461)"/><circle class="cls-4" cx="45.75" cy="79" r="2.18"/><path class="cls-3" d="M1107.74,516.84" transform="translate(-881 -461)"/><circle class="cls-4" cx="54.05" cy="70.47" r="2.18"/><path class="cls-3" d="M939.6,519" transform="translate(-881 -461)"/><circle class="cls-4" cx="58.41" cy="60.19" r="2.18"/><path class="cls-3" d="M975.14,505" transform="translate(-881 -461)"/><ellipse class="cls-4" cx="99.67" cy="44.03" rx="2.07" ry="2.14"/><ellipse class="cls-4" cx="110.54" cy="74.2" rx="2.07" ry="2.14"/><ellipse class="cls-4" cx="102.62" cy="65.82" rx="2.07" ry="2.14"/><path class="cls-3" d="M979.29,514.56" transform="translate(-881 -461)"/><ellipse class="cls-4" cx="98.48" cy="55.7" rx="2.07" ry="2.14"/><ellipse class="cls-4" cx="82.08" cy="74.2" rx="2.07" ry="2.14"/><ellipse class="cls-4" cx="80.57" cy="62.36" rx="2.07" ry="2.14"/><path class="cls-3" d="M960.82,508.7" transform="translate(-881 -461)"/><ellipse class="cls-4" cx="80.01" cy="49.83" rx="2.07" ry="2.14"/></svg>