<?xml version="1.0" encoding="utf-8"?>
<!-- Generator: Adobe Illustrator 23.0.6, SVG Export Plug-In . SVG Version: 6.00 Build 0)  -->
<svg version="1.1" id="Layer_1" xmlns="http://www.w3.org/2000/svg" xmlns:xlink="http://www.w3.org/1999/xlink" x="0px" y="0px"
	 viewBox="0 0 290.6 290.6" style="enable-background:new 0 0 290.6 290.6;" xml:space="preserve">
<style type="text/css">
	.st0{fill:#FFFFFF;}
</style>
<g>
	<g>
		<path class="st0" d="M276.4,121.5c0,19.2-58.4,34.8-130.6,34.8S14.9,140.8,14.9,121.5s58.5-34.8,130.8-34.8
			S276.4,102.3,276.4,121.5z"/>
	</g>
	<g>
		<g>
			<path class="st0" d="M145.9,156.3c112.6,0,130.6-30.9,130.6-34.8c0-19.2-58.5-34.8-130.8-34.8S14.9,102.3,14.9,121.5
				c0,1.3,0.3,2.8,0.8,4.5C19.9,131.9,43.4,156.3,145.9,156.3z"/>
		</g>
		<g>
			<path class="st0" d="M145.5,165.4c-106.2,0-124.7-28.6-124.7-28.6s57.8,101,124.3,101c57.3,0,106.6-71.2,124.3-99
				C267,141.5,243.1,165.4,145.5,165.4z"/>
		</g>
	</g>
	<path class="st0" d="M11.8,108.1l6.5-7.6l-8-22.3c-0.3-0.7,0-1.5,0.7-1.8l33.4-13.3c0.3-0.1,0.8-0.2,1,0l19.2,22.1l9.3-3.3
		L47.5,53.6c-0.8-0.8-1.9-1-2.9-0.6L4.5,69.5c-2.7,1.1-4,4.4-2.7,7.2L11.8,108.1z"/>
	<path class="st0" d="M278.8,111.7l-6.5-7.6l8-22.3c0.3-0.7,0-1.5-0.7-1.8l-33.4-13.3c-0.3-0.1-0.8-0.2-1,0l-19.2,22.1l-9.3-3.3
		l26.6-28.5c0.8-0.8,1.9-1,2.9-0.6l40.1,16.5c2.7,1.1,4,4.4,2.7,7.2L278.8,111.7z"/>
</g>
</svg>
