<svg id="Calque_1" data-name="Calque 1" xmlns="http://www.w3.org/2000/svg" viewBox="0 0 22.17 22.94"><defs><style>.cls-1{fill:#fff;}</style></defs><title>bobun</title><path class="cls-1" d="M970,541.83c.1,0,.11,0,.09.07s-.12.5-.19.74a10.62,10.62,0,0,1-3.41,5.18,10.33,10.33,0,0,1-2.92,1.71.22.22,0,0,0-.17.25c0,.38,0,.75,0,1.13,0,.2-.07.27-.25.27h-6.71c-.32,0-.35,0-.35-.35s0-.71,0-1.06a.2.2,0,0,0-.16-.23,10.61,10.61,0,0,1-6.1-6.17c-.16-.45-.28-.92-.41-1.38,0-.1,0-.1.07-.09l.38.37.15.42a10.18,10.18,0,0,0,2.09,3.71s1.55,1.43,1.6,1.46a10.54,10.54,0,0,0,2.09,1.19,2.12,2.12,0,0,0,1,.2c.6,0,1.19,0,1.78,0h3.92a3,3,0,0,0,1.17-.17,10.39,10.39,0,0,0,3.83-2.79,10.22,10.22,0,0,0,2.09-3.91.61.61,0,0,1,.09-.18Zm-7,7.84h-6.51v.88c0,.23,0,.23.23.23h6.06a.29.29,0,0,0,.13,0s.09,0,.09-.09Z" transform="translate(-948.65 -528.24)"/><path class="cls-1" d="M953.1,536.52l2.28,2.29c.15.15.15.22,0,.38a3.85,3.85,0,0,1-2.25,1.08,3.89,3.89,0,0,1-3.16-1,4,4,0,0,1-.26-5.64c.21-.23.28-.23.5,0Zm-2.54-2a2.73,2.73,0,0,0,1.73,4.48,2.6,2.6,0,0,0,2.12-.65c-.35-.35-.69-.67-1-1,0,0-.13,0-.17,0a1.17,1.17,0,0,1-.89.12,1.22,1.22,0,0,1-.79-1.75s.05-.15,0-.18C951.24,535.23,950.91,534.9,950.56,534.55Zm4.11,4.17a3.15,3.15,0,0,1-4.28-.2,3,3,0,0,1-.89-1.94,3.12,3.12,0,0,1,.75-2.3L950,534a3.55,3.55,0,0,0,5,5ZM951.92,536a.78.78,0,0,0,.19,1,.72.72,0,0,0,.87.07Z" transform="translate(-948.65 -528.24)"/><path class="cls-1" d="M969.27,537.23a2.33,2.33,0,1,1-2.21-1.26,2.34,2.34,0,0,1,1.14.21.24.24,0,0,1,.08.06Zm-4,1.07a1.94,1.94,0,0,0,2,1.94,1.94,1.94,0,1,0,0-3.87A1.93,1.93,0,0,0,965.28,538.3Z" transform="translate(-948.65 -528.24)"/><path class="cls-1" d="M954.32,533.75a7.66,7.66,0,0,1-.87-2A9.65,9.65,0,0,1,953,529c0-.21,0-.26-.27-.26h-1.22c-.27,0-.31,0-.31.32a7.37,7.37,0,0,0,.43,2.63,4,4,0,0,0,1.27,1.83,7.44,7.44,0,0,0,.75.46l.43.15c.13,0,.25,0,.32-.09S954.38,533.82,954.32,533.75Zm-1.05-.46a3.75,3.75,0,0,1-1.28-1.85,7.9,7.9,0,0,1-.38-2.15c0-.11,0-.16.14-.16h.75c.09,0,.13,0,.13.13s0,.3,0,.45a9.37,9.37,0,0,0,.47,2.4c.11.34.47,1.17.59,1.49Z" transform="translate(-948.65 -528.24)"/><path class="cls-1" d="M960.73,528.82l-.46-.48s-.17-.07-.16-.07a9,9,0,0,1,1,.38,3.11,3.11,0,0,1,1.3,1.84c0,.09,0-.08-.1-.06l-.44-.44a5.33,5.33,0,0,0-.46-.58C961.22,529.2,961,529,960.73,528.82Z" transform="translate(-948.65 -528.24)"/><path class="cls-1" d="M958.19,530.86a1.69,1.69,0,0,1,.91-1.23.18.18,0,0,1,.26.09.19.19,0,0,1-.09.27,1.41,1.41,0,0,0-.59.64,2,2,0,0,0-.1.35c0,.11-.11.19-.23.17S958.17,531,958.19,530.86Z" transform="translate(-948.65 -528.24)"/><path class="cls-1" d="M963.27,536.08a1.21,1.21,0,0,1-.31.8c-.09.1-.19.15-.32,0s-.1-.19,0-.33a.78.78,0,0,0,.2-.53c0-.17.07-.26.2-.26S963.28,535.92,963.27,536.08Z" transform="translate(-948.65 -528.24)"/><path class="cls-1" d="M969.27,537.23l-1-1a3.4,3.4,0,0,1,.45.28A1.57,1.57,0,0,1,969.27,537.23Z" transform="translate(-948.65 -528.24)"/><path class="cls-1" d="M970.05,540.91a.43.43,0,0,0-.2,0h-9.91v-1.21a1.3,1.3,0,0,1,0-.37.87.87,0,0,1,.2.16,2,2,0,0,0,2.15.33,2,2,0,0,0,1.28-1.74.34.34,0,0,1,.17-.29,2,2,0,0,0,.71-2.8.21.21,0,0,1,0-.24,3.58,3.58,0,0,0,.38-2.05,2.79,2.79,0,0,0-2.33-2.17.89.89,0,0,1-.17-.08l-.44-.44c-.06,0-.09-.14,0,.07s.12.4.17.6a.28.28,0,0,0,.28.24,2.38,2.38,0,0,1,1.94,1.34,2.52,2.52,0,0,1-.27,2.47.26.26,0,0,0,0,.32,1.63,1.63,0,0,1-.63,2.47.3.3,0,0,0-.2.32,1.65,1.65,0,0,1-.42,1.16,1.69,1.69,0,0,1-2.34.2l-.24-.24a1.07,1.07,0,0,1-.28-.79c0-.17,0-.34,0-.51a.34.34,0,0,1,.1-.23l1.16-1c.26-.23.54-.46.79-.71a.3.3,0,0,0,.06-.26s-.13-.1-.2-.1-.13.07-.18.11l-1.57,1.39-.17.12c0-.56,0-1.08,0-1.6a.27.27,0,0,1,.07-.14l.89-.78,1.1-1c.12-.11.12-.23,0-.32s-.2,0-.29,0l-1.64,1.44-.14.1v-2.19a.21.21,0,0,0-.2-.24c-.11,0-.21.1-.21.24v2c0,.05,0,.11,0,.2-.3-.26-.57-.49-.83-.73l-1-.83c-.1-.09-.21-.12-.31,0s-.06.21,0,.31l.1.08c.61.53,1.21,1.07,1.82,1.59a.36.36,0,0,1,.14.33c0,.39,0,.78,0,1.17v.3l-.12-.09-1.64-1.44c-.14-.12-.24-.13-.34,0s-.06.21.06.33l.06.06c.56.48,1.09,1,1.66,1.44a.8.8,0,0,1,.33.71,1.43,1.43,0,0,1-.33,1.08l-.2.18a1.7,1.7,0,0,1-2.76-1.36.31.31,0,0,0-.2-.32,1.64,1.64,0,0,1-.61-2.49.23.23,0,0,0,0-.31,2.41,2.41,0,0,1-.5-1.56,4.22,4.22,0,0,1,.42-1.23,2.38,2.38,0,0,1,1.8-1c.07,0,.17,0,.18-.08.12-.34.22-.69.33-1,.09-.11.18-.22.27-.31a2.59,2.59,0,0,1,.49-.45,2.42,2.42,0,0,1,2.17-.22,1,1,0,0,0,.17,0l-.46-.48a1.81,1.81,0,0,0-.31-.09,2.74,2.74,0,0,0-2.23.81,2.62,2.62,0,0,0-.69,1.18s0,.09,0,.13-.13.14-.2.15a2.7,2.7,0,0,0-1.78,1,4,4,0,0,0-.44.86,2.35,2.35,0,0,0-.12,1,1.75,1.75,0,0,0,.28,1.07.65.65,0,0,1,0,.71,2,2,0,0,0,.72,2.49.45.45,0,0,1,.28.44,1.05,1.05,0,0,0,.09.38,2.1,2.1,0,0,0,3.35.94c.07-.07.15-.17.22-.16s0,.44,0,.53v1.06h-10a.23.23,0,0,0-.23.28,3.4,3.4,0,0,0,.08.46,1.43,1.43,0,0,0,.15.27l.38.37c0-.25-.1-.51-.14-.76,0-.06,0-.13,0-.21h20.07c0,.28-.11.53-.15.78a.25.25,0,0,0,0,.12l.35-.37a1,1,0,0,0,.21-.77S970.11,540.94,970.05,540.91Z" transform="translate(-948.65 -528.24)"/><path class="cls-1" d="M966.12,538.3a1.1,1.1,0,0,1,2.19,0,1.1,1.1,0,1,1-2.19,0Zm1.79,0a.7.7,0,0,0-1.39,0,.72.72,0,0,0,.71.69A.71.71,0,0,0,967.91,538.3Z" transform="translate(-948.65 -528.24)"/><path class="cls-1" d="M970.55,531.35c-.24,0-.47,0-.7,0a6.86,6.86,0,0,0-2.36.57c-.22.1-.57.35-.8.48a3.48,3.48,0,0,0-.81.79,3.84,3.84,0,0,0-.41.92l0,.08c0,.11-.07.23.05.32s.2,0,.3,0l.69-.4.31-.19.31-.13.74-.22h.06a10.16,10.16,0,0,1,2.69-.38c.17,0,.24-.07.24-.25v-1.3C970.82,531.43,970.74,531.34,970.55,531.35Zm-.29,1.43c-.59.06-1.18.12-1.77.21-.25,0-.5.12-.73.17s-.87.32-1.14.42c-.06,0-.49.28-.81.44a3.89,3.89,0,0,1,.38-.63,5.61,5.61,0,0,1,.82-.72,6.84,6.84,0,0,1,2.59-.86c.27,0,.54,0,.82-.06,0,.31,0,.59,0,.87S970.37,532.77,970.26,532.78Z" transform="translate(-948.65 -528.24)"/></svg>