<?xml version="1.0" encoding="utf-8"?>
<!-- Generator: Adobe Illustrator 23.0.6, SVG Export Plug-In . SVG Version: 6.00 Build 0)  -->
<svg version="1.1" id="Calque_1" xmlns="http://www.w3.org/2000/svg" xmlns:xlink="http://www.w3.org/1999/xlink" x="0px" y="0px"
	 viewBox="0 0 2371.9 2200" style="enable-background:new 0 0 2371.9 2200;" xml:space="preserve">
<style type="text/css">
	.st0{fill:none;stroke:#FFFFFF;stroke-width:50;stroke-miterlimit:10;}
</style>
<path class="st0" d="M659.5,470.9c-4.8-33.4-8.2-65.4-14.1-97c-12.7-68.4-31.6-134.9-69.3-194.3c-9.6-15.2-22.3-29.1-35.8-41
	c-8.2-7.2-20.6-11.8-31.7-13.2c-33-4.2-48.4-34.9-30.2-63.5c12-18.8,30.6-26.4,51.9-28.5c30.7-3,59.6,4.3,87.9,15.3
	c84.3,32.8,168,67.1,253,98.1c100.2,36.5,203.4,60.2,310.5,65.6c75.7,3.8,150.4-3.9,225-15.3c37.4-5.7,74.9-11.7,112.5-14.1
	c37.5-2.3,53,12.9,57.9,50.3c4.6,34.8-2.3,68.7-11.5,101.9c-12.1,43.5-26.1,86.6-40,129.6c-1.1,3.5-8.3,7-12.8,7.2
	c-104.9,4.3-209.7,10.9-314.6,11.3c-142.8,0.6-285.6-3.3-428.4-6C732.7,476.7,695.9,473.1,659.5,470.9z M1508.8,331.7
	c-0.6-1.5-1.2-2.9-1.8-4.4c-3.9,1.4-7.8,2.8-11.7,4.3c-49.9,19.4-101.5,30.6-155.1,32.1c-79.3,2.3-155.5-13.9-227.2-46
	c-77.3-34.6-152.3-74.3-227.9-112.5c-56.7-28.7-112.9-58.3-174.7-74.8c-39.1-10.5-78.6-15.8-117.3-9.1c24.2,6.3,50.3,11.3,75.2,19.8
	c56.9,19.3,107.4,51.2,158,82.6c70.2,43.6,139.4,88.9,215,123.1c117.7,53.2,238.4,69.1,363,27.2C1439.9,362.1,1474,346,1508.8,331.7
	z"/>
<path class="st0" d="M1575.6,859c-5.9-23.1-12.1-42.9-15.8-63.1c-12-65.7-18.8-131.9-12.3-198.8c1.2-12.9,4-25.9,8.3-38.1
	c6.9-19.4,19.2-21.7,35-8.1c2,1.7,4,3.4,5.6,5.5c40.7,52.6,96.4,75.5,160.5,85.1c45.9,6.9,91.1,18.5,136.6,28.5
	c79.5,17.4,135.8,65.7,176.2,134.5c38.7,65.8,60.3,137.8,72.9,212.4c27.7,163.2,24.6,326-9.8,488c-3.3,15.7-6.9,31.7-13.1,46.4
	c-5.5,12.9-13,25.9-22.8,35.7c-15.9,15.9-36.3,20.5-57.8,11.2c-21.6-9.3-32.5-27.4-31.2-49.8c1.4-23.7,7-47.2,10.9-70.8
	c18.6-111.3,26.7-223.1,14.5-335.6c-7.7-71.5-23.2-140.9-61.4-203.2c-30.1-49-71.4-84.5-127.7-99.2c-39.9-10.4-80.1-20.6-120.8-26.3
	C1670,805.8,1620.2,816.9,1575.6,859z"/>
<path class="st0" d="M1736,1561.2c-15.1-83.4-40.2-163.9-66.8-244c-42.6-128.8-88.9-256.6-120.4-388.8
	c-27.4-114.9-44.4-230.8-35.3-349.4c0.9-11.1,1.9-22.3,3-34.6c-284.1,17.3-566.8,17.2-850.1-0.7c1.7,32.4,4.3,62.8,4.6,93.3
	c0.8,90.2-12.1,178.8-31.9,266.6c-25.6,113.5-62.4,223.7-99.4,333.8c-33.2,98.5-67.7,196.6-88.9,298.8
	c-18.5,89.2-18.7,177.4,13.8,263.7c49.4,130.8,137.6,229.7,254,304.4c22.4,14.4,47.5,26.7,73.1,33.4c36.4,9.6,74.3,14.7,111.9,18.9
	c137.8,15.4,275.5,13.9,413.1-4.6c57.6-7.7,112.2-21.8,161-55.8c66-46.1,123.7-100.4,170.5-165.9
	C1727.5,1819.3,1760.6,1697.3,1736,1561.2z M1549.9,1653.9c-7.4,105.9-41.2,200.9-117.9,277.2c-62.7,62.3-139.8,96.4-226,110.9
	c-23.5,4-47.4,5.8-66.6,8.1c32.7-10.2,70.8-18.3,105.7-33.5c131.3-57.4,206.9-158.9,229.4-300c13.7-85.8,1.1-169.7-23.1-251.6
	c-32.9-111.4-68.9-221.8-103.8-332.6c-33.4-105.9-64.5-212.5-80.6-322.6c-7.4-50.3-10-101.3-14.7-152c-0.4-3.8,0-7.7,0-12.2
	c38.8-2.5,76.4-4.9,114.2-7.3c0,24-0.2,47,0,69.9c0.9,117.1,21.9,231.3,52,343.8c31.5,117.6,66.4,234.4,98.6,351.8
	C1539.4,1485.6,1555.9,1568.4,1549.9,1653.9z"/>
</svg>
