<?xml version="1.0" encoding="utf-8"?>
<!-- Generator: Adobe Illustrator 23.0.6, SVG Export Plug-In . SVG Version: 6.00 Build 0)  -->
<svg version="1.1" id="Layer_1" xmlns="http://www.w3.org/2000/svg" xmlns:xlink="http://www.w3.org/1999/xlink" x="0px" y="0px"
	 viewBox="0 0 290.6 290.6" style="enable-background:new 0 0 290.6 290.6;" xml:space="preserve">
<style type="text/css">
	.st0{fill:#FFFFFF;stroke:#FFFFFF;stroke-miterlimit:10;}
</style>
<g>
	<g>
		<g>
			<path class="st0" d="M194.8,155.2c-19.3,9.6-19.2,32.2-16.5,42.9l1.1,4.2l4.2-0.7c28.1-4.7,49.1-23.5,55-35.3l1.7-3.5l-3.1-2.3
				C236.3,159.7,215.9,144.6,194.8,155.2z M186.6,191.3c-0.8-7.2-0.4-21.4,12.3-27.8c3.9-2,7.9-2.7,11.6-2.7
				c7.1,0,13.5,2.7,17.3,4.7C221.9,173.7,207.5,186.5,186.6,191.3z"/>
			<path class="st0" d="M290.6,93.8c0-37.3-21.7-75-70.3-75c-26.9,0-47.7,10.4-69.4,34.7c-35.5,39.9-57.8,49.6-113.5,49.6
				C10,103.1,0,125.6,0,140.6c0,1.6,0.1,3.1,0.2,4.7H0v46.9l0.2,1.4c8.5,27.6,64.7,78.3,131,78.3c113.5,0,159.4-86,159.4-121.9V98.4
				h-0.2C290.5,96.8,290.6,95.2,290.6,93.8z M281.3,150c0,33.1-43.2,112.5-150,112.5c-60.5,0-113.6-46.3-121.9-71v-18.7
				c1.7,2.8,3.6,5.6,5.7,8.3c18.8,23.5,58,48.6,111.5,48.6c70.5,0,131-37.3,154.7-94.2V150z M276.8,120.5
				c-18.4,59.7-78.8,99.8-150.2,99.8c-50.2,0-86.7-23.3-104.2-45.1c-8.4-10.5-13-22.8-13-34.6c0-9.7,5.9-28.1,28.1-28.1
				c58.3,0,83.1-10.9,120.5-52.8c20-22.4,38.1-31.6,62.4-31.6c42.1,0,60.9,33,60.9,65.6C281.3,102.1,278.2,115.7,276.8,120.5z"/>
			<path class="st0" d="M220.3,32.8c-31,0-56.3,25.2-56.3,56.3s25.2,56.3,56.3,56.3c31,0,56.2-25.2,56.2-56.3S251.3,32.8,220.3,32.8
				z M220.3,135.9c-25.8,0-46.9-21-46.9-46.9s21-46.9,46.9-46.9s46.9,21,46.9,46.9S246.2,135.9,220.3,135.9z"/>
			<path class="st0" d="M157.3,108.6c-6.1-4.1-22.9-12.3-46.9-0.3c-9.7,4.9-30,8.2-54.3,8.9l0.3,9.4c12.3-0.4,42.6-2,58.2-9.9
				c19.6-9.8,32.7-3.5,37.5-0.3c11.1,7.4,16.7,18.7,16.7,33.6c0,12.6-3.3,42.9-34.1,51.7c-17.2,4.9-46.8-3.7-66.9-13.7
				c-19.1-9.6-39.6-27-39.6-47.4c0-6,1.9-14.1,18.8-14.1v-9.4c-24.5,0-28.1,14.7-28.1,23.4c0,24.6,23.1,44.9,44.8,55.8
				c17.6,8.8,40.8,16.1,59.6,16.1c5.1,0,9.9-0.5,14.1-1.8c38-10.8,40.9-49.2,40.9-60.8C178.1,132,170.9,117.7,157.3,108.6z"/>
			<path class="st0" d="M159.4,150c0-12.9-10.5-23.4-23.4-23.4s-23.4,10.5-23.4,23.4s10.5,23.4,23.4,23.4S159.4,162.9,159.4,150z
				 M121.9,150c0-7.8,6.3-14.1,14.1-14.1S150,142.2,150,150s-6.3,14.1-14.1,14.1S121.9,157.8,121.9,150z"/>
			<path class="st0" d="M220.3,117.2v9.4c20.7,0,37.5-16.8,37.5-37.5h-9.4C248.4,104.6,235.8,117.2,220.3,117.2z"/>
			<path class="st0" d="M91.5,239.7l-4.8,8c0.9,0.5,18.7,11,45.1,11c4.5,0,9.2-0.3,14.2-1l-1.3-9.3C114,252.9,91.7,239.9,91.5,239.7
				z"/>
			<path class="st0" d="M154.6,248.4l0.1,9.4c0.9,0,6.2-0.2,20.2-4.9l-3-8.9C159.2,248.2,154.6,248.4,154.6,248.4z"/>
		</g>
	</g>
</g>
</svg>
