<svg id="Calque_1" data-name="Calque 1" xmlns="http://www.w3.org/2000/svg" viewBox="0 0 258.15 244.82"><defs><style>.cls-1{fill:#fff;}</style></defs><title>noodle</title><path class="cls-1" d="M712.07,498.18c-4.05-11.86-1.2-21.68,6.13-31.23-1.69-.69-3.1-1.32-4.55-1.86L622.53,431c-.62-.23-1.42-.33-1.82-.78-1.26-1.44-2.37-3-3.53-4.52,2-.53,4.31-2,5.91-1.43,15.2,5.41,30.28,11.17,45.38,16.84L809.59,494c.94.35,2.15.43,2.75,1.08a29.09,29.09,0,0,1,2.74,4.11c-1.65.61-3.57,2.08-4.91,1.66-5.87-1.81-11.63-4-17.31-6.39-2.67-1.11-4.13-.53-5.78,1.75-6.05,8.34-6.4,13.84-.71,22.42,2.76,4.16,5.9,8.07,8.79,12.14,5.22,7.33,6.71,15.12,1.92,24.33h71.38c6.46,0,6.92.31,6.56,6.87-1.06,19-9.19,34.85-22,48.53a115.16,115.16,0,0,1-39.19,27c-3.41,1.45-4.86,3.19-4.64,7,.33,5.82.1,11.67.08,17.5,0,6.49-.39,6.89-6.74,6.89q-30.75,0-61.5,0-25.75,0-51.5,0c-6.17,0-6.54-.39-6.55-6.48,0-5.5-.33-11,.09-16.49.37-4.65-1.24-6.92-5.56-8.85-20.67-9.19-38.17-22.35-50.1-42A70.91,70.91,0,0,1,617,562c-.36-6.25.32-6.94,6.57-6.94,30.83,0,61.67-.12,92.5.12,4.49,0,6.81-1.72,8.39-5.4,4.89-11.41,4.7-22.42-1.46-33.54-4-7.21-8.72-11.66-17.34-13.64C678.3,496.36,651.15,489,624,481.87c-2.68-.7-7.77-.26-6.69-4.8,1.21-5.05,5.51-1.91,8.32-1.2C654.11,483.14,682.6,490.56,712.07,498.18ZM623.3,561.85c1.28,5.84,2,11.11,3.61,16.08,7.2,22,22.79,36.79,42.28,47.89,28,15.92,58.35,20.87,90.07,18.66,26.2-1.83,50.69-9.17,72.5-24.22,16.64-11.48,29.32-26.07,34.57-46.1,1-3.9,1.35-8,2-12.31Zm66.2,100.09H802.94V642c-38.23,12.46-75.8,12.55-113.44.16Zm39.81-106.85h9.31c7.14,0,11.76-3.69,12.87-10.8.43-2.72.67-5.87-.26-8.35-2.38-6.31-5.66-12.27-8.24-18.51-3.19-7.7-10.29-7.21-17.82-9.54C736,523.5,736.89,538.67,729.31,555.09Zm11.67-80c-5-1.93-9.76-3.86-14.6-5.47-.86-.29-2.45.47-3.22,1.23a22.92,22.92,0,0,0-3.87,26.67,6.31,6.31,0,0,0,3.05,2.93c4,1.27,8.12,2.14,12.77,3.3C732.36,493,734.64,483.8,741,475.13Zm12.94,79.47c12.56,2.29,15.69-1.76,17.5-10.43,2.7-13-8.84-27.87-22.64-29.61C756.47,527.15,762.67,539.78,753.92,554.6Zm9.86-70.91c-5.11-2-9.66-3.82-14.3-5.42a3.81,3.81,0,0,0-3.05.73c-5.2,4.22-7.33,15.2-5,22.64s9.24,5.08,14.65,7.9A33.74,33.74,0,0,1,763.78,483.69ZM770.19,520c8.44,11.19,10.76,22.53,3.72,35.13h9.51c6.65,0,9.29-1.93,10-8.55a16.54,16.54,0,0,0-1.63-8.55c-1.68-3.55-4.58-6.52-6.41-10C782.29,522,776.81,521,770.19,520ZM783,490.85C779,489.37,775.83,488,772.5,487a4.36,4.36,0,0,0-3.71.85,23.21,23.21,0,0,0-6.42,18.73c.19,1.75,1.3,4.28,2.65,4.84,3.58,1.49,7.52,2.09,12.19,3.26C773.9,505.17,777.7,498.09,783,490.85Z" transform="translate(-616.95 -424.1)"/></svg>