<svg id="Calque_1" data-name="Calque 1" xmlns="http://www.w3.org/2000/svg" viewBox="0 0 838.11 435.73"><defs><style>.cls-1{fill:#fff;}</style></defs><title>wok</title><path class="cls-1" d="M1433,424c0,53-169.86,96-380,96s-381-43-381-96,170.36-96,380.5-96S1433,371,1433,424Z" transform="translate(-632.31 -234.27)"/><path class="cls-1" d="M1053,520c327.75,0,380-85.35,380-96,0-53-170.36-96-380.5-96S672,371,672,424a42.34,42.34,0,0,0,2.26,12.46C686.37,452.64,754.71,520,1053,520Z" transform="translate(-632.31 -234.27)"/><path class="cls-1" d="M1052,545c-309,0-363-79-363-79s169.56,204,363,204c166.84,0,308.91-121.64,360.38-198.31C1405.39,479.19,1335.87,545,1052,545Z" transform="translate(-632.31 -234.27)"/><path class="cls-1" d="M663,387l19-21-23.18-61.42a3.35,3.35,0,0,1,2-4.84L758,263c.8-.26,2.4-.6,3,0l56,61,27-9-77.33-78.59a8,8,0,0,0-8.34-1.59L641.64,280.29a14.64,14.64,0,0,0-7.91,19.91Z" transform="translate(-632.31 -234.27)"/><path class="cls-1" d="M1439.74,397l-19-21,23.18-61.41a3.37,3.37,0,0,0-2-4.85L1344.74,273c-.8-.26-2.4-.59-3,0l-56,61-27-9,77.33-78.58a8,8,0,0,1,8.34-1.6l116.69,45.48a14.64,14.64,0,0,1,7.91,19.91Z" transform="translate(-632.31 -234.27)"/></svg>