<svg id="Calque_1" data-name="Calque 1" xmlns="http://www.w3.org/2000/svg" viewBox="0 0 200 200"><defs><style>.cls-1{fill:none;}.cls-2,.cls-3{fill:#fff;}.cls-2{stroke:#fff;stroke-miterlimit:10;stroke-width:2px;}</style></defs><title>salad</title><path class="cls-1" d="M861.31,447h200V647h-200Zm29.55,87.62c-5.93.84-6.06,1-5.18,7.31.21,1.49.37,3,.65,4.45,4.09,21.78,13.77,40.07,33.9,50.92,5.46,2.95,8.19,5.89,7.09,12-.87,4.77,1.41,5.86,5.89,5.81,17.49-.23,35,0,52.47-.11,11.08,0,9.37,1.33,9.74-9.47.06-1.92,1.06-4.82,2.49-5.52,24.94-12.25,35.91-33.51,39.2-59.84a14.94,14.94,0,0,0-.47-4.33c-.29-1.68-1.17-3.38-1-5,.56-5.74,1.45-11.44,2.32-18-6.3-.71-11.69-1.29-17.08-1.93-1.25-.15-3.2-.15-3.59-.88-3.62-6.64-9.58-8.84-16.45-8.89-2.37-10.27-13.84-14.57-22.19-4.17-11-4.45-15.92-3.18-23.19,6-2.88-.31-5.79-1.27-8.4-.73-2.89.6-4.22,0-6.1-2.24-6.51-7.68-17.5-6.32-22.66,2.32a6.87,6.87,0,0,1-4.37,2.84c-4.92.69-10.37,1.33-12.61,5.93-2.88,5.88-6.88,7.11-12.57,6-.39-.07-.87.32-1.76.68C888.24,523.32,889.51,528.8,890.86,534.66Z" transform="translate(-861.31 -447.04)"/><path class="cls-2" d="M890.86,534.66c-1.35-5.86-2.62-11.34-3.89-16.85.89-.36,1.37-.75,1.76-.68,5.69,1.08,9.69-.15,12.57-6,2.24-4.6,7.69-5.24,12.61-5.93a6.87,6.87,0,0,0,4.37-2.84c5.16-8.64,16.15-10,22.66-2.32,1.88,2.22,3.21,2.84,6.1,2.24,2.61-.54,5.52.42,8.4.73,7.27-9.14,12.15-10.41,23.19-6,8.35-10.4,19.82-6.1,22.19,4.17,6.87.05,12.83,2.25,16.45,8.89.39.73,2.34.73,3.59.88,5.39.64,10.78,1.22,17.08,1.93-.87,6.54-1.76,12.24-2.32,18-.15,1.62.73,3.32,1,5a14.94,14.94,0,0,1,.47,4.33c-3.29,26.33-14.26,47.59-39.2,59.84-1.43.7-2.43,3.6-2.49,5.52-.37,10.8,1.34,9.43-9.74,9.47-17.49.06-35-.12-52.47.11-4.48.05-6.76-1-5.89-5.81,1.1-6.1-1.63-9-7.09-12-20.13-10.85-29.81-29.14-33.9-50.92-.28-1.47-.44-3-.65-4.45C884.8,535.69,884.93,535.5,890.86,534.66Zm-1.41,4.66c.3,2.42.46,4.57.86,6.67,4.53,23.7,16.07,42.11,39.28,51.53a21.38,21.38,0,0,0,7.72,1.46q24.24.19,48.48,0a19,19,0,0,0,6.77-1.26c26.09-10.57,37.16-31.64,40.77-58.41Zm125.27-28.42c-2.78-5.14-5.48-7.19-10.88-7.36-3.29-.11-4.78-.81-5.82-4.34-2.08-7-11.47-8.34-16.09-2.59-.88,1.09-1.63,2.3-2.41,3.41-10.21-5.86-17.86-4.1-21.31,3.38,2,5.06,3.5,9.14,5.14,13.17a4.1,4.1,0,0,0,1.69,2.16c6.44,2.76,10.69,7.67,13.83,14.19C986.33,518.17,998.91,512.22,1014.72,510.9Zm-53.67,6c-.57-10.38-6.66-14.06-19.28-11.8-2.23-5.26-6.3-8-12-8-4.59,0-8.25,2.26-9.71,6.51-1.12,3.26-2.89,3.64-5.82,3.77-8.18.35-12.2,3.47-13.94,10.44,11.85,2.24,23.53,4.91,31.4,15.35C940.5,519.29,944.45,517.09,961.05,516.9ZM980.42,535c7.5,0,14.15.21,20.78-.11,2.23-.11,4.51-1.34,6.56-2.44,3.07-1.66,6-3.66,8.91-5.51l.76,1.36-8.41,5.82.51.88h10c14.56,0,15.7-1.16,15.81-16.14,0-.5.21-1.15,0-1.47-.86-1.15-1.72-2.93-2.83-3.14-10.92-2-21.83-2.31-32.42,1.76A32.9,32.9,0,0,0,980.42,535Zm-3.62-.18c-3.23-10.62-12.4-16.68-23.47-15.9-9.07.64-17.48,7.69-18.78,15.9Zm14.29,68.52H931.52v7.41h59.57ZM890.41,519l-1.77,1.23c2.11,4.93,3.5,10.41,6.67,14.51,1.27,1.65,6.46.27,10.13.27l-1.82-3.63c8.11,7.18,17.33,2.26,25.9,3.17C919.31,521.63,904.85,520.34,890.41,519Z" transform="translate(-861.31 -447.04)"/><path class="cls-1" d="M889.45,539.32h143.88c-3.61,26.77-14.68,47.84-40.77,58.41a19,19,0,0,1-6.77,1.26q-24.24.15-48.48,0a21.38,21.38,0,0,1-7.72-1.46c-23.21-9.42-34.75-27.83-39.28-51.53C889.91,543.89,889.75,541.74,889.45,539.32Zm106.62,49.24a45.82,45.82,0,0,0,21.85-21.34Z" transform="translate(-861.31 -447.04)"/><path class="cls-1" d="M1014.72,510.9c-15.81,1.32-28.39,7.27-35.85,22-3.14-6.52-7.39-11.43-13.83-14.19a4.1,4.1,0,0,1-1.69-2.16c-1.64-4-3.17-8.11-5.14-13.17,3.45-7.48,11.1-9.24,21.31-3.38.78-1.11,1.53-2.32,2.41-3.41,4.62-5.75,14-4.44,16.09,2.59,1,3.53,2.53,4.23,5.82,4.34C1009.24,503.71,1011.94,505.76,1014.72,510.9Z" transform="translate(-861.31 -447.04)"/><path class="cls-1" d="M961.05,516.9c-16.6.19-20.55,2.39-29.34,16.24-7.87-10.44-19.55-13.11-31.4-15.35,1.74-7,5.76-10.09,13.94-10.44,2.93-.13,4.7-.51,5.82-3.77,1.46-4.25,5.12-6.53,9.71-6.51,5.69,0,9.76,2.77,12,8C954.39,502.84,960.48,506.52,961.05,516.9Z" transform="translate(-861.31 -447.04)"/><path class="cls-1" d="M980.42,535a32.9,32.9,0,0,1,19.61-19c10.59-4.07,21.5-3.78,32.42-1.76,1.11.21,2,2,2.83,3.14.23.32,0,1,0,1.47-.11,15-1.25,16.14-15.81,16.14h-10l-.51-.88,8.41-5.82-.76-1.36c-3,1.85-5.84,3.85-8.91,5.51-2,1.1-4.33,2.33-6.56,2.44C994.57,535.25,987.92,535,980.42,535Z" transform="translate(-861.31 -447.04)"/><path class="cls-1" d="M976.8,534.86H934.55c1.3-8.21,9.71-15.26,18.78-15.9C964.4,518.18,973.57,524.24,976.8,534.86Z" transform="translate(-861.31 -447.04)"/><path class="cls-1" d="M991.09,603.38v7.41H931.52v-7.41Z" transform="translate(-861.31 -447.04)"/><path class="cls-1" d="M890.41,519c14.44,1.35,28.9,2.64,39.11,15.55-8.57-.91-17.79,4-25.9-3.17l1.82,3.63c-3.67,0-8.86,1.38-10.13-.27-3.17-4.1-4.56-9.58-6.67-14.51Z" transform="translate(-861.31 -447.04)"/><path class="cls-3" d="M996.07,588.56l21.85-21.34A45.82,45.82,0,0,1,996.07,588.56Z" transform="translate(-861.31 -447.04)"/></svg>