<svg id="Calque_1" data-name="Calque 1" xmlns="http://www.w3.org/2000/svg" viewBox="0 0 100.84 101"><defs><style>.cls-1{fill:none;}.cls-2{fill:#fff;}.cls-3{fill:#fbfbfb;}.cls-4{fill:#fefefe;}</style></defs><title>soup</title><path class="cls-1" d="M-4.57,94.29a3.56,3.56,0,0,1-.06-.44V-6.71H96.21v101Zm74.18-48-1-1.61C74.71,38.87,80.94,33.14,87,27.23c4.15-4.05,4.39-8.18,1-11.2-3.25-2.86-7.1-2.19-10.74,2-7.06,8.2-14.14,16.39-21,24.73a8.72,8.72,0,0,1-7.59,3.57c-13.81-.2-27.64,0-41.46-.15-3.74,0-4.82,1.22-4.85,4.89-.18,19.68,16.5,37,36.15,37.16,5.66.06,11.32.12,17,0,19.28-.47,36.18-19,35-38.2-.17-2.78-1.14-3.85-3.89-3.79C80.89,46.36,75.25,46.29,69.61,46.29ZM20.42,4.4c-.51-.59-1.05-1.75-1.72-1.83A2.79,2.79,0,0,0,16.49,4c-2,4.84-3.45,10-.92,14.93,2.69,5.21,3.57,10.21,1.32,15.75-.35.86.57,2.23.9,3.36.91-.72,2.27-1.25,2.68-2.18,2.29-5.23,2.93-10.6,0-15.82a14.72,14.72,0,0,1-.95-12.94C19.79,6.31,20,5.52,20.42,4.4ZM33,1.22c-1.45,1.69-2.49,2.34-2.57,3.08-.49,4.67-2.09,9.78-.78,14C31.41,24,33.41,29.12,30.75,35c-.31.71.58,2,.91,3,.94-.65,2.63-1.21,2.71-2,.53-4.66,2-9.77.67-13.94-1.78-5.57-3.58-10.56-1.15-16.27C34.28,4.87,33.45,3.44,33,1.22ZM50.83,27.78l-.47-.13a4.17,4.17,0,0,0,0-.5c-1.24-7.6-6.53-14.82-2.21-23,.13-.25-1-1.67-1.44-1.6-.82.13-2.09.81-2.2,1.44-.74,4.18-2.58,8.81-1.47,12.52C45,23,47.88,28.88,44.6,35.65c-.24.49.61,2,1.26,2.26a2.57,2.57,0,0,0,2.25-1.15C49.18,33.82,50,30.78,50.83,27.78Z" transform="translate(4.63 6.71)"/><path class="cls-2" d="M69.61,46.29c5.64,0,11.28.07,16.92,0,2.75-.06,3.72,1,3.89,3.79,1.18,19.16-15.72,37.73-35,38.2-5.66.14-11.32.08-17,0C18.79,88.08,2.11,70.79,2.29,51.11c0-3.67,1.11-4.94,4.85-4.89,13.82.17,27.65,0,41.46.15a8.72,8.72,0,0,0,7.59-3.57c6.89-8.34,14-16.53,21-24.73,3.64-4.23,7.49-4.9,10.74-2,3.43,3,3.19,7.15-1,11.2-6.06,5.91-12.29,11.64-18.44,17.45Zm-62.4,12A32.43,32.43,0,0,0,8,62.09c4,12.1,17.67,22,30.44,22.18,5,.06,10,0,15,0,12.83-.06,26.3-8.89,30.9-20.82,1.53-4,1.74-8.45,2.65-13.17-26.73,0-52.18,0-77.63,0-3.38,0-3.45,1.45-2.24,4H61.13c4.33,0,8.67-.2,13,.08,2,.13,4,1.16,6,1.79-2.1.71-4.18,1.48-6.3,2.09a9.4,9.4,0,0,1-2.49,0H7.21ZM59,45.49l.72,1.06c1.32-.45,3-.53,3.9-1.41C70.88,38,78,30.79,85,23.42c.77-.81.27-2.82.35-4.27-1.43.22-3.46-.1-4.19.73C73.65,28.31,66.38,36.93,59,45.49Z" transform="translate(4.63 6.71)"/><path class="cls-2" d="M20.42,4.4c-.38,1.12-.63,1.91-.91,2.69A14.72,14.72,0,0,0,20.46,20c2.94,5.22,2.3,10.59,0,15.82-.41.93-1.77,1.46-2.68,2.18-.33-1.13-1.25-2.5-.9-3.36,2.25-5.54,1.37-10.54-1.32-15.75C13,14,14.44,8.83,16.49,4A2.79,2.79,0,0,1,18.7,2.57C19.37,2.65,19.91,3.81,20.42,4.4Z" transform="translate(4.63 6.71)"/><path class="cls-3" d="M33,1.22c.49,2.22,1.32,3.65.93,4.57-2.43,5.71-.63,10.7,1.15,16.27,1.34,4.17-.14,9.28-.67,13.94-.08.75-1.77,1.31-2.71,2-.33-1-1.22-2.25-.91-3,2.66-5.88.66-11-1.14-16.75C28.3,14.08,29.9,9,30.39,4.3,30.47,3.56,31.51,2.91,33,1.22Z" transform="translate(4.63 6.71)"/><path class="cls-4" d="M50.83,27.78c-.88,3-1.65,6-2.72,9a2.57,2.57,0,0,1-2.25,1.15c-.65-.26-1.5-1.77-1.26-2.26C47.88,28.88,45,23,43,16.52c-1.11-3.71.73-8.34,1.47-12.52.11-.63,1.38-1.31,2.2-1.44.41-.07,1.57,1.35,1.44,1.6-4.32,8.17,1,15.39,2.21,23a4.17,4.17,0,0,1,0,.5Z" transform="translate(4.63 6.71)"/><path class="cls-1" d="M7.21,58.29H71.37a9.4,9.4,0,0,0,2.49,0c2.12-.61,4.2-1.38,6.3-2.09-2-.63-4-1.66-6-1.79-4.31-.28-8.65-.08-13-.08H7.07c-1.21-2.58-1.14-4,2.24-4,25.45.05,50.9,0,77.63,0C86,55,85.82,59.49,84.29,63.46c-4.6,11.93-18.07,20.76-30.9,20.82-5,0-10,0-15,0C25.64,84.12,12,74.19,8,62.09A32.43,32.43,0,0,1,7.21,58.29Z" transform="translate(4.63 6.71)"/><path class="cls-2" d="M59,45.49c7.34-8.56,14.61-17.18,22.1-25.61.73-.83,2.76-.51,4.19-.73-.08,1.45.42,3.46-.35,4.27C78,30.79,70.88,38,63.66,45.14c-.89.88-2.58,1-3.9,1.41Z" transform="translate(4.63 6.71)"/></svg>