<svg id="Calque_2" data-name="Calque 2" xmlns="http://www.w3.org/2000/svg" viewBox="0 0 323 534"><defs><style>.cls-1{fill:#fff;}.cls-2,.cls-3,.cls-4{fill:none;stroke:#fff;stroke-miterlimit:10;stroke-width:5px;}.cls-2,.cls-3{stroke-linecap:round;}.cls-3{fill-rule:evenodd;}</style></defs><title>logo-light</title><path class="cls-1" d="M172.4,88.58c86.29,0,156.5,48.22,156.5,107.5s-70.21,107.5-156.5,107.5S15.9,255.35,15.9,196.08,86.1,88.58,172.4,88.58m0-5c-89.2,0-161.5,50.36-161.5,112.5s72.3,112.5,161.5,112.5,161.5-50.37,161.5-112.5S261.59,83.58,172.4,83.58Z" transform="translate(-10.9 -10.58)"/><path class="cls-1" d="M176.4,88.17a107.48,107.48,0,1,1-76,31.48,106.8,106.8,0,0,1,76-31.48m0-5a112.5,112.5,0,1,0,112.5,112.5A112.5,112.5,0,0,0,176.4,83.17Z" transform="translate(-10.9 -10.58)"/><path class="cls-1" d="M172.9,88.58c10.25,0,20.68,10.89,28.62,29.87,8.62,20.66,13.38,48.22,13.38,77.63s-4.76,57-13.38,77.62c-7.94,19-18.37,29.88-28.62,29.88s-20.69-10.89-28.62-29.88c-8.63-20.65-13.38-48.22-13.38-77.62s4.75-57,13.38-77.63c7.93-19,18.36-29.87,28.62-29.87m0-5c-26,0-47,50.36-47,112.5s21,112.5,47,112.5,47-50.37,47-112.5-21.05-112.5-47-112.5Z" transform="translate(-10.9 -10.58)"/><rect class="cls-1" x="115.6" y="53.92" width="88" height="8"/><path class="cls-1" d="M212,67v3H129V67h83m5-5H124V75h93V62Z" transform="translate(-10.9 -10.58)"/><rect class="cls-1" x="117.5" y="309.5" width="88" height="8"/><path class="cls-1" d="M213.9,322.58v3h-83v-3h83m5-5h-93v13h93v-13Z" transform="translate(-10.9 -10.58)"/><line class="cls-2" x1="115.5" y1="326.5" x2="115.5" y2="389.5"/><line class="cls-2" x1="208.5" y1="326.5" x2="208.5" y2="389.5"/><line class="cls-2" x1="185.25" y1="326.5" x2="185.25" y2="389.5"/><line class="cls-2" x1="162" y1="326.5" x2="162" y2="389.5"/><line class="cls-2" x1="138.75" y1="326.5" x2="138.75" y2="389.5"/><polygon class="cls-3" points="162.5 403 144.5 461.5 180.5 461.5 162.5 403"/><line class="cls-2" x1="162.5" y1="468.5" x2="162.5" y2="531.5"/><line class="cls-2" x1="144.5" y1="468.5" x2="144.5" y2="531.5"/><line class="cls-2" x1="180.5" y1="468.5" x2="180.5" y2="531.5"/><path class="cls-4" d="M161.4,35.58c5,9.5,10,26.5,9.5,26.5s6.5-21,9.5-26.5c7-12.85-4.76-22.5-10-22.5S154.58,22.63,161.4,35.58Z" transform="translate(-10.9 -10.58)"/></svg>