<svg id="Calque_2" data-name="Calque 2" xmlns="http://www.w3.org/2000/svg" viewBox="0 0 956.01 1458.38"><defs><style>.cls-1{fill:#fff;}.cls-2,.cls-3{fill:none;stroke:#fff;stroke-miterlimit:10;}.cls-2{stroke-width:40px;}.cls-3{stroke-width:20px;}</style></defs><title>logo-light</title><path class="cls-1" d="M878.46,108.82l-.68.48c-.3.22-.61.45-.92.7-.62.48-1.24,1-1.85,1.54a41.25,41.25,0,0,0-3.45,3.42,34.72,34.72,0,0,0-5.29,7.69,25.11,25.11,0,0,0-2.14,16.92c1.23,5.87,4.48,11.86,8.78,17.43a86.61,86.61,0,0,0,7.14,8.1c2.67,2.69,5.48,5.35,8.33,7.93a261.41,261.41,0,0,0,37.07,27.84,168,168,0,0,0,20,10.72,77.71,77.71,0,0,0,10,3.68,35.93,35.93,0,0,0,4.56,1,12.83,12.83,0,0,0,3.23.11c.3,0,.41-.1.29-.05a2.63,2.63,0,0,0-.82.62,2.71,2.71,0,0,0-.59.92c-.06.16,0,.07,0-.22V37.35l10.08,10L715.37,49.19h0l9.92-10.09,12.47,187.08h0l.21,21-21.13.05-421.45.87-21.79.05V226.8h0l7.95-187.41,9.87,9.8h0L36.2,46,46.32,36l-.17,183.56-5.65-9a20.63,20.63,0,0,0,8.16,1.85,40.49,40.49,0,0,0,10-1,92.71,92.71,0,0,0,21.12-7.84,191.88,191.88,0,0,0,20.56-12c6.69-4.44,13.22-9.24,19.54-14.27,3.15-2.52,6.27-5.1,9.26-7.72,1.48-1.31,3-2.66,4.26-3.89.58-.56,1.24-1.28,1.86-1.91s1.22-1.31,1.78-2c4.61-5.39,7.9-11.36,9.17-17.6A35,35,0,0,0,144.49,125a51.33,51.33,0,0,0-4.59-9.4c-.93-1.51-1.94-3-3-4.41-.54-.7-1.09-1.39-1.64-2l-.83-1-.66-.73,14.14-14.14.82.85.65.73c.42.47.83.94,1.22,1.41.79.94,1.54,1.89,2.26,2.85q2.17,2.88,4.06,5.95a70.62,70.62,0,0,1,6.38,13.1,59.13,59.13,0,0,1,3.32,14.69,52.57,52.57,0,0,1-.87,15.41,54.14,54.14,0,0,1-5.22,14.37,65.65,65.65,0,0,1-8.33,12.14c-.77.93-1.59,1.79-2.39,2.68s-1.6,1.68-2.52,2.58c-1.73,1.66-3.34,3.11-5,4.56-3.29,2.89-6.61,5.65-10,8.34-6.75,5.38-13.71,10.49-21,15.29a211.16,211.16,0,0,1-22.72,13.26A112.81,112.81,0,0,1,62.82,231a60.72,60.72,0,0,1-14.93,1.44,40.74,40.74,0,0,1-16.08-3.82l-5.66-2.73v-6.29L26.32,36V25.9L36.45,26l255.22,3.17h0l9-.46L301.55,39,317.18,225.9h0l-21.79-21.34,421.45.88-20.91,21.08h0l9.36-187.25.53-10.56,9.4.48h0l256.85-1.84,10.07-.07V217.59c0,.41,0,.83,0,1.26a21,21,0,0,1-1.12,5.69,17.39,17.39,0,0,1-3.66,6.06,17.57,17.57,0,0,1-5.74,4,21.28,21.28,0,0,1-5.51,1.53,31.86,31.86,0,0,1-8.79-.1,54.94,54.94,0,0,1-7.22-1.54,99,99,0,0,1-12.64-4.63,188.5,188.5,0,0,1-22.47-12,280,280,0,0,1-40-30c-3.11-2.8-6.15-5.68-9.13-8.69a104.59,104.59,0,0,1-8.79-10,75.72,75.72,0,0,1-7.48-11.67,55.65,55.65,0,0,1-5-13.76,44.94,44.94,0,0,1,3.78-30,54.33,54.33,0,0,1,8.31-12.14,62.42,62.42,0,0,1,5.1-5.06c.9-.8,1.82-1.57,2.79-2.32.48-.38,1-.75,1.48-1.12l.8-.56.43-.3.57-.37Z" transform="translate(-26.15 -25.9)"/><line class="cls-2" x1="271.01" y1="271.12" x2="267.78" y2="842.36"/><line class="cls-2" x1="694.01" y1="271.12" x2="691.04" y2="842.36"/><path class="cls-1" d="M151.94,1021.29l.76.77.63.68,1.21,1.32c.79.89,1.55,1.77,2.29,2.67,1.49,1.8,2.9,3.63,4.26,5.52a94.33,94.33,0,0,1,7.39,12,72.91,72.91,0,0,1,5.41,13.53,55.06,55.06,0,0,1,2.17,15.2,46.46,46.46,0,0,1-2.78,15.72,49.21,49.21,0,0,1-7.73,13.7l-1.21,1.49-1.26,1.43c-.42.48-.86.91-1.29,1.37s-.88.92-1.27,1.29c-1.62,1.57-3.24,3.14-4.9,4.62-3.29,3-6.65,5.83-10.06,8.56-6.82,5.46-13.8,10.53-20.89,15.38s-14.26,9.51-21.51,14-14.57,8.84-22,13.07q-5.53,3.17-11.13,6.25c-3.75,2.06-7.44,4.06-11.33,6.1h0l-14.06,7.81-.54-16.7L36.76,936h0V918.61l17.39,0,910.17.86h16.54V936h0l-6.54,231-.44,15.61-13.6-6.46h0c-4.32-1.94-8.41-3.86-12.57-5.84s-8.26-4-12.37-6q-12.3-6.16-24.39-12.84c-8.05-4.47-16-9.1-23.88-14.08a271.44,271.44,0,0,1-23.1-16.16,139.14,139.14,0,0,1-11-9.56l-1.34-1.29-1.32-1.38c-.87-.93-1.74-1.79-2.62-2.84a57.67,57.67,0,0,1-4.93-6.49,54,54,0,0,1-6.88-15.1,56,56,0,0,1-2-16.35c.28-10.87,3.33-21,7.48-30.07a110.67,110.67,0,0,1,7.12-13.09q2-3.13,4.14-6.15c.73-1,1.47-2,2.25-3l1.18-1.5.62-.76.74-.86,15,13.23-.82,1-.93,1.16c-.61.8-1.22,1.61-1.82,2.44-1.2,1.66-2.35,3.37-3.45,5.11a93.38,93.38,0,0,0-5.84,10.74c-3.35,7.32-5.51,15-5.68,22.24a34,34,0,0,0,5.59,20,37,37,0,0,0,3.28,4.32c.56.68,1.31,1.41,2,2.13l1,1.08,1.1,1.06a121.59,121.59,0,0,0,9.49,8.23,251.8,251.8,0,0,0,21.39,14.94c7.43,4.72,15.11,9.18,22.88,13.5s15.68,8.45,23.67,12.45q6,3,12,5.88c4,1.91,8.11,3.84,12,5.6h0l-14,9.14-6.53-231h0l16.53,16.54-910.17.86L71.55,936h0l-7.4,231-14.59-8.88h0c3.56-1.85,7.26-3.86,10.87-5.85s7.24-4,10.84-6.09c7.19-4.12,14.33-8.35,21.35-12.71s14-8.84,20.74-13.49,13.39-9.45,19.68-14.5c3.16-2.52,6.22-5.1,9.13-7.76,1.48-1.32,2.88-2.67,4.27-4,.38-.35.66-.65.95-1s.6-.6.86-.92l.83-.94.78-1a27,27,0,0,0,6.2-17.11c.05-6.25-2-13-5.36-19.48a75.15,75.15,0,0,0-5.83-9.45c-1.1-1.52-2.25-3-3.44-4.45-.6-.72-1.21-1.43-1.82-2.12l-.91-1-.79-.83Z" transform="translate(-26.15 -25.9)"/><polygon class="cls-3" points="475.59 1123.58 552.02 990.37 396.58 991.89 475.59 1123.58"/><circle class="cls-3" cx="472.03" cy="81.36" r="39.02"/><line class="cls-3" x1="477.87" y1="1173.38" x2="477.87" y2="1458.38"/><line class="cls-3" x1="427.61" y1="1173.38" x2="427.61" y2="1458.38"/><line class="cls-3" x1="532.01" y1="1173.38" x2="532.01" y2="1458.38"/></svg>