<?xml version="1.0" encoding="utf-8"?>
<!-- Generator: Adobe Illustrator 23.0.6, SVG Export Plug-In . SVG Version: 6.00 Build 0)  -->
<svg version="1.1" id="Calque_1" xmlns="http://www.w3.org/2000/svg" xmlns:xlink="http://www.w3.org/1999/xlink" x="0px" y="0px"
	 viewBox="0 0 944.2 973.2" style="enable-background:new 0 0 944.2 973.2;" xml:space="preserve">
<style type="text/css">
	.st0{fill:#FFFFFF;}
</style>
<g>
	<path class="st0" d="M291.3,685.8c0-46.5,0-92.6,0-139.3c-2.4-0.2-4.5-0.4-6.6-0.4c-61.5,0-123-0.1-184.4,0.1
		c-4.8,0-6.3-1.3-6.1-6.1c0.4-9.3,0.1-18.6,0.1-28.3c180.5,0,360.5,0,541.1,0c0.1,1.7,0.3,3.4,0.3,5.2c0,54.5-0.1,109,0.1,163.5
		c0,4.8-1.5,5.7-6,5.7c-111-0.1-221.9-0.1-332.9-0.1C295.3,686.1,293.5,685.9,291.3,685.8z M597.3,546.5c-90.7,0-180.9,0-271.2,0
		c0,33.8,0,67.2,0,100.9c90.5,0,180.7,0,271.2,0C597.3,613.7,597.3,580.3,597.3,546.5z"/>
	<path class="st0" d="M678.6,466.4c-143.4,0-285.7,0-429.7,0c71.8-84.2,142.8-167.7,214.3-251.5c28.2,33.2,56,65.9,83.8,98.6
		c0.4-0.1,0.8-0.2,1.2-0.2c0-1.7,0-3.4,0-5.1c0-22.5,0.1-45-0.1-67.5c0-3.9,0.8-5.6,5.2-5.5c17.1,0.2,34.3,0.1,52,0.1
		c0.1,2.3,0.4,4.2,0.4,6.1c0,44.5,0.1,89-0.1,133.5c0,3.6,1,6.2,3.3,8.9c22.5,26.3,45,52.6,67.4,79
		C676.9,463.6,677.4,464.6,678.6,466.4z M600.6,431.8c-45.9-53.7-91.1-106.4-136.6-159.6c-45.6,53.3-90.7,106.1-136.6,159.6
		C418.9,431.8,509.1,431.8,600.6,431.8z"/>
	<path class="st0" d="M712,93.9c-10.7,20.6-21.1,40.7-31.7,61.3c-4.4-2.2-8.4-4.3-13.1-6.6c8.3-16.1,16.4-31.8,24.6-47.6
		c-0.3-0.2-0.5-0.5-0.8-0.7c-12.1,13.8-24.3,27.6-36.6,41.6c-4-2.1-7.9-3.7-11.3-6c-1.1-0.7-1.8-3.3-1.4-4.8
		c3.5-15.3,7.2-30.5,10.8-45.7c0.4-1.7,0.7-3.5,0.5-5.4c-8.3,15.9-16.5,31.8-25,48.3c-4.4-2.3-8.5-4.4-13-6.7
		c10.6-20.5,21-40.7,31.8-61.4c6.5,3.3,12.7,6.4,18.7,9.8c0.9,0.5,1.1,3.2,0.8,4.7c-3.5,15.6-7.1,31.2-10.7,46.7
		c-0.1,0.6-0.2,1.3-0.5,3.4c2.1-2.2,3.4-3.5,4.6-4.9c9.8-11.1,19.8-22.1,29.4-33.3c2.2-2.6,3.9-2.8,6.7-1.2
		C700.8,88.3,706.2,90.9,712,93.9z"/>
	<path class="st0" d="M403.3,940.6c6.2-15.1,12.5-30.1,18.4-45.3c1.4-3.7,3-4.8,6.9-3.9c5.5,1.2,11.2,1.7,17.6,2.5
		c-3.2,22.9-6.3,45.5-9.5,68.5c-5.1-0.8-9.7-1.4-14.5-2.1c2.4-17.5,4.8-34.6,7.2-51.8c-0.4-0.1-0.7-0.2-1.1-0.4
		c-0.7,1.5-1.5,3-2.1,4.6c-5.6,13.9-11.3,27.8-16.7,41.7c-1.2,3-2.6,3.9-5.9,3.4c-10.8-1.6-11-1.4-12.2-12.3
		c-1.7-14.7-3.1-29.5-5.7-44.3c-2.5,17.5-5,35-7.5,53c-4.9-0.7-9.3-1.3-14.4-1.9c3.2-22.8,6.3-45.3,9.5-68.4
		c7.2,1,14.1,1.6,20.8,3.1c1.3,0.3,2.4,3.9,2.6,6c1.8,14.4,3.3,28.8,4.9,43.2c0.2,1.4,0.4,2.9,0.6,4.3
		C402.6,940.5,403,940.5,403.3,940.6z"/>
	<path class="st0" d="M875.4,635.1c11.7,5.2,22.5,10,33.2,14.7c-1.8,8.8-2.5,9.4-11.7,8.8c4.7,11.5,2.2,21.9-4.2,31.6
		c-4.1,6.2-9.8,10.4-16.7,12.8c-14.1,4.9-33.7-1.9-43-15c-9.1-12.8-7.8-30.8,3.3-45.6c7.7-10.2,19-14.5,29-10.9
		c-1.7,3.9-3.3,7.9-5.2,11.8c-0.5,0.9-1.9,1.8-3,1.9c-8.9,0.4-13.3,6.1-16,13.6c-2.8,7.8-1.2,14.9,4.7,20.6c5.9,5.7,13.2,9,21.4,9.8
		c8.4,0.8,16.8-5.7,19.9-15.2c2.7-8.5,0.3-16.1-7-20.7c-1.2,2.6-2.4,5.1-3.6,7.6c-1.1,2.4-2.2,4.8-3.5,7.7c-3.6-1.6-6.8-3-10.4-4.6
		C866.9,654.2,871,644.8,875.4,635.1z"/>
	<path class="st0" d="M876.8,409.8c14.8-3.5,29.6-7,45.1-10.6c1.1,4.8,2.2,9.2,3.4,14.2c-22.5,5.3-44.6,10.6-67.3,15.9
		c-1.2-4.9-2.5-9.3-3.1-13.8c-0.2-1.4,1.3-3.2,2.5-4.5c11-11.4,22.1-22.6,33.1-33.9c1.1-1.2,2.2-2.4,4.2-4.6
		c-16.5,3.9-31.7,7.4-47.5,11.2c-1.1-4.7-2.2-9.1-3.4-14.2c22.5-5.3,44.6-10.6,67.2-15.9c1.3,5.1,2.7,9.9,3.4,14.7
		c0.2,1.3-1.4,3.2-2.6,4.4c-10.3,10.6-20.8,21.1-31.1,31.7c-1.5,1.5-2.9,3.1-4.3,4.6C876.4,409.2,876.6,409.5,876.8,409.8z"/>
	<path class="st0" d="M840.9,776.3c-19.5-13-38.4-25.5-57.7-38.3c2.9-4.3,5.3-8.5,8.3-12.2c0.9-1.1,3.2-1.4,4.9-1.3
		c15.2,0.3,30.3,0.8,45.5,1.2c1.8,0,3.5,0,5.6-1.1c-12.6-8.4-25.3-16.9-38.3-25.6c2.7-4.1,5.2-7.9,8.1-12.2
		c19.3,12.8,38.2,25.4,57.6,38.3c-2.7,4.1-5,8.1-7.8,11.6c-0.9,1.1-3.2,1.3-4.9,1.3c-15-0.3-30-0.7-45-1c-2.3-0.1-4.6,0-7.5,0.9
		c13,8.7,26,17.4,39.3,26.3C846.3,768.2,843.8,772.1,840.9,776.3z"/>
	<path class="st0" d="M859.4,272.5c18.6,0.1,34.9,18.6,34.9,39.7c0,18.7-19,35.4-40.1,35.2c-18.5-0.2-35-19-35.1-39.8
		C819.1,289.2,838.3,272.4,859.4,272.5z M881,308.7c0-13.4-11.2-23.1-24.4-20c-5.5,1.3-11,3.9-15.7,7.1c-8.9,6.2-10.6,16.7-5.3,26.2
		c4.8,8.4,13.2,11.8,23.1,9.2C872.4,327.5,881,318.8,881,308.7z"/>
	<path class="st0" d="M71.1,684.9c0,7.7-5.4,11-11.5,13.9c-4.6,2.2-9,5-14.3,8c-1.6-3.7-3.8-8.5-5.6-13.5c-0.3-0.8,1.2-2.7,2.3-3.3
		c3.6-2.1,7.3-3.9,11-5.7c7.7-3.8,8.9-6.6,5.6-14.7c-1.9-4.7-4.1-9.3-6.3-14.4c-8.4,3.6-16.3,7-24.8,10.7c-2-4.7-4-9.1-6.2-14.1
		c21.2-9.2,42-18.3,63.4-27.6c1.8,4.1,3.6,7.8,5.2,11.5c3.9,9.3,8.4,18.5,11.6,28.1c4.5,13.8-6.1,26.7-20.2,25
		C77.8,688.2,74.7,686.3,71.1,684.9z M62.5,650.5c3.4,7.2,6.2,13.9,9.6,20.1c2.4,4.3,6.3,4.9,10.8,2.8c4.6-2.1,6.9-5.6,5.4-9.9
		c-2.3-6.9-5.4-13.5-8.3-20.7C74,645.5,68.6,647.9,62.5,650.5z"/>
	<path class="st0" d="M133.4,161.9c11.2-9.6,21.5-19.4,32.8-27.9c12-9,28.2-2.1,30.3,12.2c0.4,3-0.4,6.1-0.7,9.7
		c8.3-2.4,13.2,2.8,18.2,8.3c3,3.3,6.7,6,10.7,9.6c-3,2.7-7,6.3-11.1,9.6c-0.5,0.4-2.6-0.3-3.4-1.1c-3.4-3.1-6.7-6.5-10-9.7
		c-5.2-5.1-8.3-5.4-13.9-0.9c-4.4,3.6-8.5,7.4-13.1,11.5c6,6.8,11.8,13.4,17.9,20.4c-3.9,3.4-7.5,6.7-11.6,10.3
		C164.2,196.6,149.1,179.6,133.4,161.9z M165.7,174.8c5.7-5.3,11.2-10.1,16.2-15.4c3.4-3.6,2.9-7.4-0.6-11.1c-3.1-3.4-7-5.2-11-2.2
		c-5.9,4.4-11.4,9.5-17.2,14.3c1.4,1.8,2.3,3,3.3,4.1C159.3,167.7,162.2,170.9,165.7,174.8z"/>
	<path class="st0" d="M325.4,867.4c20.9,1.2,39.6,12.8,39.5,34.6c-0.1,22.7-15.5,40.5-34.9,39.9c-20.1-0.7-39.8-12.1-39.4-35.1
		C291.1,884.1,306.1,867.1,325.4,867.4z M350.6,901.7c-0.5-0.2-0.9-0.4-1.4-0.6c0.2-9.5-4.7-16.5-13.4-19.4
		c-9.5-3.2-18.3-1-23.1,7.5c-3.3,5.7-5.5,12.5-6.3,19.1c-1.2,9.1,4.5,16.3,13.3,19.4c9.2,3.2,17.9,1.1,22.8-7
		C346.1,914.8,348,908,350.6,901.7z"/>
	<path class="st0" d="M670.7,850.7c0-18.3,19.5-36.7,38.8-36.5c18.7,0.2,36.6,19.3,36.7,39.2c0.1,18.2-19,36.4-38.2,36.5
		C689,890,670.7,870.7,670.7,850.7z M685.7,847.9c0,9.6,8.3,22.5,17.1,26.5c13.1,5.9,29.2-4.6,28.2-18.9
		c-0.8-11.6-6.9-20.6-17.3-25.7C701.2,823.7,685.8,834,685.7,847.9z"/>
	<path class="st0" d="M604.8,886.5c0-18.9,18.6-35,40.2-34.9c18.6,0.1,34.7,18.8,34.6,40.1c-0.1,19-18.6,35.1-40.2,34.9
		C620.9,926.5,604.8,907.8,604.8,886.5z M664.2,891.6c-0.4-7.3-3.7-15.3-10.4-21.7c-6.2-5.8-14-6.7-22.2-2.6
		c-7.6,3.7-11.8,9.9-11.4,18.4c0.4,8.4,3.7,15.9,9.7,21.9c6.2,6.2,13.6,7.2,21.6,4C659.7,908.3,664.1,901.9,664.2,891.6z"/>
	<path class="st0" d="M270.7,920.8c-4.8-2.6-9.2-4.9-13.9-7.4c4.9-9.2,9.5-18,14.4-27.3c-8.7-4.6-17.1-9.1-26-13.9
		c-4.9,9.2-9.7,18.1-14.6,27.2c-4.8-2.6-9.2-4.9-13.9-7.4c10.9-20.5,21.6-40.5,32.6-61.1c4.6,2.4,9,4.7,13.9,7.3
		c-4.1,7.8-8.1,15.3-12.3,23.4c8.6,4.6,17,9.1,25.9,13.9c4.3-7.9,8.4-15.4,12.6-23.3c4.7,2.5,9,4.8,13.9,7.4
		C292.4,880.1,281.6,900.3,270.7,920.8z"/>
	<path class="st0" d="M110,703.4c-4.3,2.7-8.1,5.2-12.4,7.9c6.6,10.5,13,20.6,19.8,31.1c-3.3,2.2-6.4,4.2-9.9,6.5
		c-6.7-10.5-13.2-20.7-20-31.2c-5.1,3.3-9.8,6.3-15,9.6c7.6,11.9,14.9,23.5,22.6,35.5c-3.4,2.2-6.6,4.3-10.4,6.7
		c-10.3-16.2-20.5-32.1-31.1-48.6c19.5-12.4,38.7-24.7,58.4-37.3c10.1,15.8,19.9,31.1,30,47c-3.4,2.2-6.5,4.3-10.2,6.7
		C124.5,725.9,117.3,714.8,110,703.4z"/>
	<path class="st0" d="M68.9,332.3c5.5,2.4,10.5,4.6,16.3,7.1c5.6-12.9,11.2-25.6,16.8-38.6c3.9,1.7,7.4,3.2,11.3,4.9
		c-7.6,17.7-15.1,35.1-22.8,52.9c-21.3-9.2-42.3-18.2-63.6-27.4c7.4-17.2,14.7-34,22.1-51.2c3.9,1.7,7.3,3.1,11.2,4.8
		c-5.3,12.5-10.5,24.5-15.9,37c4.5,2,8.7,3.8,13.5,5.9c4.9-11.3,9.7-22.3,14.8-33.8c3.7,1.6,7.1,3,11,4.7
		C78.5,309.8,73.8,320.7,68.9,332.3z"/>
	<path class="st0" d="M785.5,220.8c2.4,3.3,5.1,6.5,7.2,10c0.6,1,0.3,3.2-0.5,4.2c-2.9,4-3.2,8.3-0.7,12.2
		c2.9,4.5,6.4,8.8,10.2,12.7c2.6,2.6,6.4,2.8,9.6,0.4c3.1-2.3,3-5.4,1.8-8.6c-2-5.1-4.2-10.1-6.2-15.2c-1.6-3.9-3.3-7.7-4.4-11.6
		c-4-13.7,7.3-26.1,21.4-23.5c15.5,2.8,30.5,24.5,26.8,39.9c-1,4.2-4.1,8-6.8,13.1c-3.9-5.2-6.7-9.1-9.5-12.8
		c5.4-9.6,2.1-21.1-7.8-25.6c-2.2-1-6.2-0.7-8.1,0.7c-1.6,1.2-2.5,5.2-1.8,7.3c2.1,6.6,5.2,12.9,7.8,19.4c1.2,3.1,2.5,6.2,3.3,9.4
		c3.4,13.5-7.7,25.3-21.4,22.5c-3.5-0.7-7.1-2.1-10-4.1c-9.7-6.8-16.2-16.2-19.2-27.7C775,233.8,778,225.7,785.5,220.8z"/>
	<path class="st0" d="M452.2,961.9c-0.7-23.4-1.3-46-2-69.1c18.7-0.6,36.9-1.1,55.6-1.7c0,4.2,0,7.9,0,12.8c-13,0-26.1,0-39.2,0
		c0,5.7,0,10.3,0,14.9c12.4,0,24.3,0,36.7,0c0,3.5,0,7.1,0,11.7c-11.8,0-23.7,0-35.9,0c0,6.7,0,12.4,0,18.1c14.1,0,27.7,0,42,0
		c0.2,3.5,0.3,7.2,0.5,11.7C490.7,960.7,471.8,961.3,452.2,961.9z"/>
	<path class="st0" d="M765,799c17.3,2.3,33.9,4.5,51.9,6.9c-5.2,4.9-9.5,9.2-14.1,13.1c-1.1,0.9-3.5,0.5-5.2,0.2
		c-10.9-1.6-21.7-3.2-32.8-4.9c-1.4,5.8-2,10.8,3.1,15.1c4.1,3.5,7.6,7.8,11.2,11.6c-3.6,3.9-6.8,7.4-10.6,11.6
		c-16.3-17.1-32-33.6-48.1-50.5c3.9-3.7,7.5-7.1,10.9-10.4c6.8,6.4,13.3,12.5,20.8,19.6c0-4.9-0.1-9,0-13c0.2-5.5,0.5-11,0.7-16.5
		c0.4-11.4,4.1-17.3,15.1-23.7C766.9,771.7,766,785.1,765,799z"/>
	<path class="st0" d="M483.9,92.6c-5.4,0.3-10.1,0.8-14.9,0.6c-1.2,0-2.8-2-3.4-3.4c-4.6-10.4-4.6-10.5-16-9.8
		c-0.8,0-1.7,0.2-2.5,0.1c-9.6-1.1-16.8,1.1-17.7,12.5c-0.1,0.9-1.9,2.4-3.1,2.4c-4.4,0.3-8.9,0.1-14,0.1c1.9-5.6,3.8-11.1,5.6-16.5
		c5.6-16.4,11.3-32.7,16.8-49.1c1.1-3.2,2.6-4.3,6-4.4c13.7-0.7,13.6-0.8,18.9,11.5c7.3,16.8,14.6,33.5,21.9,50.3
		C482.4,88.6,483,90.3,483.9,92.6z M456.7,67.7c-3.6-9.1-6.9-17.3-10.2-25.5c-0.4,0.1-0.7,0.1-1.1,0.2c-2.7,8.5-5.3,17-8.2,26.2
		C443.8,68.3,449.7,68.1,456.7,67.7z"/>
	<path class="st0" d="M743.5,206.6c-4.1-3.3-8-6.2-11.4-9.5c-0.9-0.9-0.9-3.3-0.4-4.8c3.5-10.7,3.5-10.6-5-17.7
		c-0.9-0.7-1.9-1.4-2.7-2.2c-6.2-7.1-12.8-9.8-20.8-2.4c-0.8,0.7-3.3,0.7-4.3,0c-3.6-2.6-7-5.5-11-8.8c9.8-5.6,19-10.8,28.3-16
		c11-6.2,22.1-12.3,33.1-18.7c2.5-1.5,4.2-1.4,6.6,0.5c10.9,9,10.9,8.9,6.6,22.1c-5.8,17.6-11.5,35.1-17.2,52.7
		C744.7,203.3,744.2,204.6,743.5,206.6z M739.8,169.7c3.3-9,6.3-17.4,9.2-25.7c-0.3-0.2-0.6-0.4-0.9-0.7c-7.6,4.5-15.2,9.1-23.4,14
		C729.9,161.6,734.4,165.3,739.8,169.7z"/>
	<path class="st0" d="M136,829.5c-1.5-1.6-2.4-2.5-3.3-3.5c-7.8-8.8-7.9-8.8-2.4-19.3c1.3-2.4,0.9-3.8-0.8-5.6
		c-4.7-5.2-9.4-10.3-13.9-15.7c-1.8-2.2-3.3-2.4-5.9-1.4c-10.5,4.2-10.6,4.1-18.1-4.6c-0.9-1-1.7-2-2.8-3.2c0.9-0.6,1.5-1.1,2.2-1.3
		c21.1-7.7,42.2-15.3,63.3-23.2c3-1.1,4.7-0.6,6.8,1.7c9.1,10.2,9.1,10.2,2.7,22.4c-8,15.4-15.9,30.8-23.8,46.1
		C138.8,824.3,137.6,826.6,136,829.5z M125.1,778c4.7,5.2,8.6,9.7,13,14.6c4.8-8.6,9-16.3,14-25.3
		C142.4,771.2,134.2,774.4,125.1,778z"/>
	<path class="st0" d="M294.6,130.7c-4.7,2.8-8.6,5.4-12.7,7.4c-1.1,0.6-3.4-0.1-4.6-1c-9.2-7.1-9.2-7.1-19.5-1.1
		c-0.6,0.3-1.1,0.7-1.7,1c-8.9,3.6-14.4,8.8-9.7,19.4c0.4,0.9-0.4,3-1.3,3.6c-3.7,2.5-7.6,4.6-12.2,7.3c-1.3-7.5-2.5-14.3-3.6-21.1
		c-2.6-16.1-5-32.2-7.8-48.2c-0.5-3.2,0.3-4.7,3-6.3c11.9-6.9,11.8-7,22.5,1.5C262.6,105.4,278.2,117.7,294.6,130.7z M237.6,104
		c-0.3,0.2-0.6,0.4-1,0.6c1.7,8.8,3.4,17.6,5.2,27c6-3.5,11.2-6.6,16.9-10C251.2,115.3,244.4,109.6,237.6,104z"/>
	<path class="st0" d="M606.7,916.1c1.6,12.1-4.9,23.7-15.8,29.2c-23.4,11.6-44.8,1.4-51.1-23.9c-8.2-32.9,19.8-48.4,43.9-43.5
		c8.4,1.7,14.5,7.1,18.3,15.9c-4.9,1.2-9.3,2.5-13.8,3.4c-0.9,0.2-2.4-1-3-1.9c-4.4-6-10.4-6.8-17-5.4c-6.7,1.5-11.5,5.5-13,12.4
		c-2.2,10,0,19.3,5.7,27.6c4.3,6.2,10.8,8.2,18.1,6.5c7.2-1.6,11.7-6,12.9-13.5c0.2-1.4,1.6-3.3,2.9-3.7
		C598.5,917.9,602.5,917.2,606.7,916.1z"/>
	<path class="st0" d="M138.5,236.8c-4.1-5.9-7.3-10.7-10.6-15.4c-6.1-8.9-12.2-17.9-18.5-26.7c-1.8-2.5-1.8-4.2,0.2-6.5
		c2.6-2.9,4.9-6.2,7.6-9.7c10.4,16.8,20.3,32.9,30.3,49c1.3,2.1,2.7,4.2,3.9,6.4c1.5,2.6,4.6,5.8,3.9,7.7c-1.4,3.9-4.7,7.1-7.5,10.4
		c-0.5,0.6-2.2,0.8-3.1,0.6c-22.5-7-45.1-14.1-68.4-21.4c3.4-4.3,6.2-8.4,9.5-12c0.7-0.8,3.4-0.4,4.9,0.1
		c14.1,5.1,28.1,10.4,42.1,15.5C134.3,235.4,135.7,235.8,138.5,236.8z"/>
	<path class="st0" d="M360.3,107.5c-4.7-22.7-9.4-44.9-14.1-67.7c17.7-3.7,34.9-7.3,52.7-11c0.8,3.9,1.6,7.5,2.5,11.8
		c-12.5,2.7-24.7,5.2-37.3,7.9c1.1,5.1,2,10,3.2,15.5c10.9-2.2,21.6-4.4,32.6-6.6c0.7,3.3,1.7,6.2,1.9,9.1c0,1-1.8,2.8-3.1,3.1
		c-9.4,2.2-18.8,4.1-28.9,6.2c1.9,9.5,3.8,18.7,5.7,28.5C370.4,105.4,365.6,106.4,360.3,107.5z"/>
	<path class="st0" d="M551.8,45.2c-7.6-1.7-14.6-3.2-22.3-4.9c0.8-3.9,1.6-7.5,2.5-11.8c20.2,4.3,40,8.4,60.4,12.8
		c-0.9,4-1.6,7.6-2.5,11.8c-7.5-1.5-14.6-2.9-22.3-4.5c-3.9,18.5-7.8,36.6-11.9,55.6c-5.1-1-10.1-2-15.6-3.1
		C544,82.4,547.8,64,551.8,45.2z"/>
	<path class="st0" d="M163.4,836.9c9.9,8.3,19.3,16.2,29.2,24.6c-2.6,3.1-5,6.1-7.7,9.4c-14-11.7-27.5-23.1-41.4-34.8
		c14.9-17.8,29.6-35.2,44.5-53.1c4.1,3.4,7.9,6.6,12.1,10.1C187.9,807.7,175.9,822,163.4,836.9z"/>
	<path class="st0" d="M6.5,405.5c1.3-5.3,2.4-9.9,3.7-15.2c18.6,4.4,36.7,8.7,55.4,13.2c3-12.4,5.9-24.5,9-37.1
		c3.9,0.9,7.5,1.7,11.8,2.8c-4.2,17.6-8.3,34.8-12.5,52.5C51.3,416.3,29.3,411,6.5,405.5z"/>
	<path class="st0" d="M276.6,64.6c5-2.1,9.6-4.1,14.5-6.2c9,21.4,17.9,42.5,27,63.9c-4.9,2.1-9.5,4-14.5,6.2
		C294.6,107.2,285.8,86.3,276.6,64.6z"/>
	<path class="st0" d="M767.5,754.7c3.5-4.1,6.6-7.8,10.1-12.1c17.7,14.8,35.2,29.5,53.1,44.5c-3.4,4.1-6.6,7.9-10.1,12.1
		C802.9,784.4,785.4,769.8,767.5,754.7z"/>
	<path class="st0" d="M514.9,27.2c-2.1,23.1-4.1,45.6-6.2,68.8c-5.3-0.4-10.1-0.8-15.7-1.2c2.1-23,4.1-45.7,6.2-69
		C504.4,26.3,509.3,26.7,514.9,27.2z"/>
	<path class="st0" d="M799.5,166.2c3.7,3.9,7,7.4,10.6,11.3c-16.9,15.9-33.6,31.5-50.6,47.4c-3.6-3.8-6.9-7.3-10.7-11.3
		C765.7,197.9,782.4,182.3,799.5,166.2z"/>
	<path class="st0" d="M62.5,650.5c6-2.6,11.5-5,17.6-7.7c2.9,7.2,5.9,13.8,8.3,20.7c1.5,4.3-0.8,7.9-5.4,9.9
		c-4.6,2.1-8.5,1.4-10.8-2.8C68.7,664.4,65.9,657.7,62.5,650.5z"/>
	<path class="st0" d="M138.1,792.6c-4.4-4.9-8.4-9.4-13-14.6c9-3.6,17.3-6.8,27-10.7"/>
</g>
</svg>
